<?xml version="1.0" encoding="utf-8"?>
<!-- Generator: Adobe Illustrator 15.1.0, SVG Export Plug-In . SVG Version: 6.00 Build 0)  -->
<!DOCTYPE svg PUBLIC "-//W3C//DTD SVG 1.1//EN" "http://www.w3.org/Graphics/SVG/1.1/DTD/svg11.dtd">
<svg version="1.1" id="Layer_1" xmlns="http://www.w3.org/2000/svg" xmlns:xlink="http://www.w3.org/1999/xlink" x="0px" y="0px"
	 width="1400px" height="980px" viewBox="0 0 1400 980" enable-background="new 0 0 1400 980" xml:space="preserve">
<g>
	<path fill="#030202" d="M861.035,311.359c0.429,1.729,0.968,3.118,1.651,4.05c4.49,6.122,24.427,7.953,41.861,8.343
		c0.315,0.951,0.661,1.724,1.062,2.151c2.571,2.736,8.294,5.535,31.23,5.535c6.335,0,11.465-0.227,12.676-0.285
		c1.213,0.058,6.342,0.285,12.679,0.285h0.002c22.931,0,28.655-2.797,31.23-5.537c0.389-0.413,0.732-1.179,1.048-2.13
		c17.623-0.35,38.122-2.144,42.685-8.362c0.685-0.932,1.224-2.321,1.651-4.05c14.379-0.69,30.364-3.254,32.869-11.097
		c10.738-33.602-15.615-121.835-46.999-157.349c-10.755-12.172-21.331-17.374-31.429-15.481c-3.426,0.641-6.508,2.299-9.232,4.876
		c-2.747-1.063-5.536-1.516-8.365-1.313c-4.462,0.313-8.537,2.333-12.17,5.991c-4.277-4.137-8.94-6.246-13.969-6.246
		c-4.785,0-9.24,2.046-13.347,6.064c-3.586-3.536-7.59-5.501-11.973-5.809c-2.834-0.197-5.621,0.256-8.364,1.317
		c-2.726-2.578-5.808-4.239-9.231-4.879c-10.097-1.902-20.677,3.308-31.435,15.48c-31.384,35.514-57.738,123.748-46.999,157.349
		C830.672,308.105,846.658,310.669,861.035,311.359z M995.132,137.46c7.867-1.469,16.257,5.822,21.903,12.211
		c28.926,32.73,54.43,116.166,45.064,147.044c-2.223,1.83-11.788,3.652-22.19,4.345c0.785-33.445-15.2-111.156-34.425-145.986
		c-3.994-7.237-8.139-12.854-12.409-16.845C993.74,137.877,994.42,137.593,995.132,137.46z M976.371,141.172
		c1.807-0.118,3.586,0.409,5.31,1.305c0.135,0.126,0.262,0.26,0.414,0.373c0.441,0.322,0.923,0.539,1.417,0.703
		c3.695,2.573,7.025,6.803,9.546,10.632c27.323,41.52,40.598,144.674,35.95,155.035c-3.033,2.003-17.336,3.826-32.936,4.294
		c2.459-32.958-4.872-120.823-21.337-158.882c-1.546-3.575-3.188-6.694-4.896-9.471
		C971.968,142.696,974.154,141.328,976.371,141.172z M959.414,147.787c23.437,32.321,29.135,155.129,26.052,171.308
		c-1.738,0.676-7.349,2.141-23.271,2.141c-6.835,0-12.359-0.282-12.414-0.284c-0.089-0.005-0.176-0.007-0.265-0.007
		c-0.087,0-0.176,0.001-0.264,0.007c-0.054,0.002-5.577,0.284-12.412,0.284c-15.938,0-21.534-1.466-23.187-2.067
		c0.012-0.131,0.041-0.26,0.042-0.394c0.009-0.723-0.139-1.412-0.404-2.038c-2.175-23.251,4.595-138.48,27.283-169.522
		C947.063,138.346,953.215,139.235,959.414,147.787z M923.479,141.172c2.174,0.153,4.322,1.462,6.414,3.838
		c-1.599,2.644-3.141,5.585-4.601,8.958c-15.332,35.434-24.457,125.875-22.278,159.522c-15.229-0.499-29.058-2.283-32.13-4.24
		c-4.598-11.124,8.681-113.703,35.91-155.068c2.517-3.824,5.849-8.052,9.542-10.626c0.492-0.162,0.974-0.381,1.414-0.703
		c0.157-0.114,0.283-0.252,0.423-0.381C919.9,141.573,921.677,141.046,923.479,141.172z M882.812,149.671
		c5.646-6.39,14.04-13.72,21.909-12.209c0.711,0.133,1.389,0.416,2.053,0.768c-4.27,3.987-8.411,9.6-12.405,16.834
		c-19.226,34.828-35.216,112.543-34.433,145.995c-10.285-0.699-19.982-2.542-22.188-4.344
		C828.382,265.836,853.885,182.401,882.812,149.671z"/>
	<path fill="#030202" d="M645.853,274.879c1.551,0,3.087-0.14,4.605-0.375l48.126,129.76c0.744,2.007,2.658,3.325,4.78,3.325
		c0.096,0,0.19-0.004,0.284-0.008c2.059-0.114,3.828-1.453,4.518-3.362l48.108-129.715c1.518,0.236,3.058,0.375,4.608,0.375
		c16.781,0,30.433-13.651,30.433-30.433c0-11.487-6.471-21.864-16.479-27.023c0.495-3.435,0.746-6.913,0.746-10.389
		c0-39.818-32.395-72.214-72.214-72.214c-39.819,0-72.213,32.396-72.213,72.214c0,3.478,0.249,6.958,0.744,10.389
		c-10.01,5.159-16.479,15.536-16.479,27.023C615.419,261.228,629.071,274.879,645.853,274.879z M703.368,387.82l-43.229-116.553
		c1.687-0.899,3.303-1.944,4.802-3.152c11.543,7.295,24.741,11.129,38.428,11.129s26.886-3.837,38.427-11.128
		c1.5,1.209,3.112,2.252,4.801,3.151L703.368,387.82z M639.271,225.339c2.422-0.834,3.85-3.335,3.338-5.843
		c-0.83-4.076-1.251-8.268-1.251-12.462c0-34.194,27.817-62.012,62.01-62.012s62.011,27.818,62.011,62.012
		c0,4.188-0.422,8.382-1.254,12.462c-0.511,2.508,0.918,5.009,3.338,5.843c8.166,2.81,13.649,10.488,13.649,19.107
		c0,11.155-9.075,20.23-20.229,20.23c-5.682,0-10.948-2.314-14.835-6.513c-1.741-1.885-4.616-2.177-6.71-0.688
		c-10.589,7.566-23.029,11.564-35.97,11.564s-25.38-3.998-35.973-11.564c-0.894-0.637-1.932-0.95-2.963-0.95
		c-1.38,0-2.748,0.558-3.746,1.638c-2.376,2.569-5.274,4.422-8.464,5.481c-0.106,0.034-0.214,0.044-0.32,0.084
		c-0.039,0.014-0.068,0.036-0.105,0.051c-1.898,0.583-3.892,0.896-5.945,0.896c-11.155,0-20.231-9.076-20.231-20.23
		C625.622,235.828,631.106,228.149,639.271,225.339z"/>
	<path fill="#030202" d="M434.562,368.372c66.805,0,121.155-54.349,121.155-121.154c0-66.804-54.35-121.155-121.155-121.155
		c-66.804,0-121.155,54.351-121.155,121.155C313.407,314.022,367.757,368.372,434.562,368.372z M434.562,136.265
		c61.179,0,110.953,49.773,110.953,110.953c0,61.179-49.774,110.952-110.953,110.952c-61.178,0-110.953-49.773-110.953-110.952
		C323.609,186.038,373.383,136.265,434.562,136.265z"/>
	<path fill="#030202" d="M485.437,247.217c0-28.054-22.823-50.876-50.875-50.876c-28.051,0-50.875,22.822-50.875,50.876
		c0,28.054,22.824,50.876,50.875,50.876C462.614,298.093,485.437,275.271,485.437,247.217z M393.89,247.217
		c0-22.428,18.246-40.674,40.672-40.674c22.426,0,40.672,18.246,40.672,40.674s-18.246,40.674-40.672,40.674
		C412.136,287.891,393.89,269.645,393.89,247.217z"/>
	<path fill="#030202" d="M376.409,201.529c1.008,1.19,2.446,1.803,3.894,1.803c1.164,0,2.336-0.397,3.295-1.21
		c2.149-1.82,2.414-5.04,0.594-7.189l-8.773-10.349c-1.818-2.148-5.038-2.417-7.188-0.593c-2.15,1.82-2.414,5.04-0.595,7.189
		L376.409,201.529z"/>
	<path fill="#030202" d="M498.645,238.151c-2.149,1.82-2.417,5.039-0.594,7.189l8.771,10.353c1.01,1.19,2.448,1.803,3.896,1.803
		c1.164,0,2.336-0.397,3.295-1.209c2.148-1.822,2.416-5.04,0.594-7.19l-8.771-10.351
		C504.014,236.598,500.795,236.331,498.645,238.151z"/>
	<path fill="#030202" d="M367.522,308.097c1.165,0,2.337-0.397,3.295-1.21c2.15-1.82,2.415-5.04,0.594-7.189l-8.772-10.349
		c-1.818-2.145-5.039-2.417-7.189-0.593c-2.15,1.82-2.414,5.04-0.594,7.189l8.773,10.349
		C364.637,307.484,366.075,308.097,367.522,308.097z"/>
	<path fill="#030202" d="M342.856,225.658c0.575,0.209,1.163,0.31,1.742,0.31c2.084,0,4.042-1.289,4.794-3.362l4.633-12.75
		c0.963-2.646-0.403-5.574-3.052-6.536c-2.646-0.959-5.575,0.402-6.536,3.052l-4.633,12.75
		C338.841,221.769,340.208,224.697,342.856,225.658z"/>
	<path fill="#030202" d="M349.373,245.173c1.006,1.292,2.509,1.968,4.029,1.968c1.096,0,2.2-0.35,3.129-1.076l10.701-8.333
		c2.223-1.732,2.622-4.937,0.892-7.16c-1.734-2.224-4.942-2.626-7.159-0.891l-10.701,8.332
		C348.041,239.746,347.643,242.951,349.373,245.173z"/>
	<path fill="#030202" d="M430.505,188.215c0.575,0.209,1.163,0.309,1.742,0.309c2.083,0,4.042-1.288,4.794-3.36l4.631-12.747
		c0.963-2.648-0.403-5.574-3.052-6.536c-2.646-0.963-5.575,0.404-6.536,3.053l-4.632,12.746
		C426.489,184.328,427.856,187.253,430.505,188.215z"/>
	<path fill="#030202" d="M484.797,289.416c-1.368-2.464-4.47-3.354-6.936-1.988c-2.464,1.367-3.354,4.471-1.988,6.936l6.579,11.863
		c0.933,1.681,2.671,2.629,4.467,2.629c0.836,0,1.685-0.208,2.469-0.642c2.464-1.367,3.352-4.473,1.987-6.936L484.797,289.416z"/>
	<path fill="#030202" d="M408.898,304.849c-1.366-2.463-4.471-3.35-6.937-1.988c-2.463,1.367-3.353,4.473-1.988,6.937l6.577,11.863
		c0.932,1.68,2.672,2.628,4.467,2.628c0.837,0,1.686-0.208,2.469-0.641c2.463-1.367,3.353-4.471,1.988-6.936L408.898,304.849z"/>
	<path fill="#030202" d="M468.462,179.081c0.932,1.68,2.672,2.628,4.467,2.628c0.837,0,1.686-0.207,2.47-0.641
		c2.462-1.366,3.353-4.471,1.987-6.936l-6.578-11.863c-1.368-2.464-4.472-3.353-6.936-1.988c-2.462,1.367-3.353,4.473-1.988,6.937
		L468.462,179.081z"/>
	<path fill="#030202" d="M385.736,170.459c0.18,0,0.362-0.008,0.543-0.028l13.487-1.429c2.803-0.296,4.833-2.808,4.537-5.609
		c-0.297-2.802-2.819-4.839-5.609-4.537l-13.487,1.429c-2.803,0.298-4.834,2.808-4.537,5.609
		C380.947,168.515,383.161,170.459,385.736,170.459z"/>
	<path fill="#030202" d="M485.787,207.257c0.179,0,0.362-0.008,0.543-0.028l13.489-1.427c2.803-0.298,4.834-2.81,4.537-5.61
		c-0.295-2.801-2.83-4.828-5.609-4.536l-13.489,1.427c-2.803,0.298-4.833,2.808-4.536,5.609
		C480.998,205.313,483.211,207.257,485.787,207.257z"/>
	<path fill="#030202" d="M472.554,321.516l-13.489,1.428c-2.803,0.298-4.834,2.809-4.536,5.61c0.277,2.62,2.49,4.565,5.066,4.565
		c0.179,0,0.362-0.009,0.543-0.029l13.489-1.428c2.803-0.298,4.833-2.808,4.537-5.609
		C477.868,323.25,475.331,321.221,472.554,321.516z"/>
	<path fill="#030202" d="M358.731,269.792c-0.295-2.801-2.809-4.843-5.609-4.536l-13.489,1.424
		c-2.801,0.295-4.833,2.805-4.537,5.609c0.277,2.619,2.49,4.565,5.067,4.565c0.179,0,0.36-0.009,0.542-0.028l13.489-1.424
		C356.996,275.106,359.027,272.596,358.731,269.792z"/>
	<path fill="#030202" d="M523.664,277.613l-13.487,1.425c-2.801,0.296-4.832,2.807-4.537,5.61c0.277,2.619,2.489,4.565,5.066,4.565
		c0.179,0,0.36-0.01,0.543-0.03l13.487-1.425c2.801-0.295,4.833-2.805,4.537-5.609C528.977,279.35,526.471,277.302,523.664,277.613z
		"/>
	<path fill="#030202" d="M519.679,223.409c0.575,0.209,1.163,0.31,1.742,0.31c2.084,0,4.042-1.289,4.794-3.362l4.633-12.746
		c0.963-2.647-0.404-5.576-3.052-6.536c-2.642-0.967-5.576,0.401-6.536,3.052l-4.633,12.746
		C515.664,219.52,517.03,222.449,519.679,223.409z"/>
	<path fill="#030202" d="M433.989,319.52c-2.64-0.963-5.576,0.404-6.536,3.052l-4.633,12.747c-0.963,2.647,0.404,5.574,3.053,6.536
		c0.574,0.209,1.162,0.309,1.741,0.309c2.084,0,4.042-1.289,4.794-3.36l4.633-12.747
		C438.004,323.409,436.637,320.482,433.989,319.52z"/>
	<path fill="#030202" d="M764.492,682.399c-1.96-9.028-8.825-33.652-26.185-38.221c-22.717-5.977-33.256-18.045-32.224-36.896
		c0.272-4.979-2.379-9.278-6.92-11.217c-6.144-2.629-16.724-1.164-27.962,10.826c-7.635,8.146-20.754,22.23-16.264,39.212
		c-2.074-0.075-4.139,0.02-6.179,0.405c-11.771,2.22-20.323,11.857-25.534,28.481c-0.469,0.145-0.938,0.239-1.405,0.415
		c-9.765,3.685-16.852,13.437-16.852,23.188c0,14.487,12.509,24.282,17.675,27.71l16.822,97.335
		c0.422,2.444,2.544,4.231,5.027,4.231h98.355c2.482,0,4.604-1.787,5.027-4.231l16.758-96.961
		c7.653-3.971,17.882-13.081,14.513-26.439C776.679,690.465,771.282,685.157,764.492,682.399z M678.644,613.871
		c7.602-8.105,14.042-9.48,16.511-8.423c0.538,0.229,0.785,0.479,0.742,1.276c-0.908,16.569,5.263,38.229,39.813,47.321
		c9.1,2.395,14.858,16.078,17.64,25.902c-7.55-0.585-15.709,0.358-23.165,1.243c-11.519,1.362-23.43,2.771-27.212-2.258
		c-9.365-12.457-22.446-24.881-35.978-30.201C659.678,635.922,668.287,624.922,678.644,613.871z M625.421,684.952
		c3.557-1.346,8.882-1.728,14.014,4.103c2.195,2.496,4.393,5.176,6.632,7.909c6.005,7.319,12.411,15.127,20.042,21.116h-37.383
		c-3.288-2.132-13.555-9.582-13.555-19.486C615.17,693.111,619.673,687.12,625.421,684.952z M738.552,817.668h-89.765
		l-15.448-89.386H754L738.552,817.668z M758.985,718.08h-65.317c-17.085,0-28.588-14.026-39.712-27.586
		c-2.318-2.825-4.589-5.596-6.863-8.18c-3.751-4.264-8.195-6.892-12.931-7.904c3.946-10.515,9.466-16.552,16.488-17.876
		c11.891-2.227,29.651,9.22,44.17,28.53c7.308,9.721,22.181,7.964,36.563,6.26c21.147-2.495,34.243-2.979,37.868,11.411
		C771.454,711.468,761.92,716.698,758.985,718.08z"/>
	<path fill="#030202" d="M943.232,544.319c0-2.233-0.266-4.36-0.758-6.38c7.098-3.562,12.946-8.679,15.006-14.743
		c1.139-3.362,1.861-9.427-3.76-15.779c2.694-3.848,4.29-8.519,4.29-13.562c0-9.782-5.995-18.376-14.786-21.938
		c0.005-0.223,0.008-0.445,0.008-0.669c0-16.383-10.022-54.49-102.861-54.49c-70.18,0-102.866,17.315-102.866,54.49
		c0,0.224,0.003,0.447,0.008,0.669c-8.791,3.562-14.786,12.156-14.786,21.938c0,5.582,1.952,10.711,5.192,14.765
		c-2.106,4.705-4.638,13.217-0.341,21.146c2.123,3.92,5.611,7.063,10.396,9.45c-0.309,1.634-0.47,3.336-0.47,5.103
		c0,16.386,10.022,54.493,102.861,54.493C910.546,598.813,943.232,581.496,943.232,544.319z M743.966,480.606
		c1.342-0.247,2.527-1.023,3.294-2.153c0.764-1.13,1.046-2.52,0.779-3.858c-0.225-1.12-0.332-2.216-0.332-3.347
		c0-20.619,10.532-44.288,92.664-44.288c58.886,0,92.659,16.143,92.659,44.288c0,1.132-0.107,2.226-0.332,3.343
		c-0.27,1.337,0.011,2.727,0.777,3.861c0.766,1.131,1.95,1.908,3.295,2.156c6.395,1.186,11.038,6.757,11.038,13.248
		c0,7.447-6.059,13.507-13.504,13.507c-4.234,0-8.152-1.983-10.75-5.44c-1.123-1.494-2.97-2.24-4.828-1.981
		c-1.85,0.276-3.403,1.543-4.045,3.302c-1.941,5.33-7.015,8.912-12.628,8.912c-4.491,0-8.677-2.225-11.196-5.951
		c-0.947-1.404-2.531-2.246-4.226-2.246c-1.695,0-3.277,0.843-4.228,2.246c-2.517,3.727-6.7,5.951-11.192,5.951
		c-4.491,0-8.677-2.225-11.196-5.951c-1.896-2.807-6.555-2.807-8.451,0c-2.52,3.727-6.704,5.951-11.193,5.951
		c-4.493,0-8.678-2.225-11.197-5.951c-0.946-1.403-2.531-2.246-4.226-2.246c-1.692,0-3.275,0.842-4.226,2.244
		c-2.521,3.729-6.705,5.953-11.197,5.953s-8.676-2.225-11.192-5.951c-0.95-1.403-2.532-2.246-4.228-2.246
		c-1.694,0-3.278,0.843-4.226,2.246c-2.52,3.727-6.704,5.951-11.196,5.951c-5.613,0-10.688-3.582-12.628-8.912
		c-0.642-1.759-2.195-3.025-4.044-3.302c-1.846-0.259-3.705,0.487-4.829,1.981c-2.598,3.457-6.516,5.44-10.748,5.44
		c-7.447,0-13.504-6.06-13.504-13.507C732.931,487.365,737.57,481.794,743.966,480.606z M736.276,515.246
		c3.083,1.471,6.519,2.318,10.158,2.318c4.973,0,9.689-1.536,13.627-4.347c4.413,5.649,11.253,9.14,18.622,9.14
		c5.73,0,11.178-2.063,15.422-5.7c4.242,3.637,9.689,5.7,15.42,5.7s11.177-2.063,15.423-5.701c4.245,3.638,9.691,5.701,15.423,5.701
		c5.729,0,11.175-2.063,15.419-5.701c4.245,3.638,9.691,5.701,15.422,5.701c5.731,0,11.178-2.063,15.42-5.7
		c4.245,3.637,9.691,5.7,15.422,5.7c7.369,0,14.208-3.49,18.622-9.14c3.938,2.811,8.654,4.347,13.629,4.347
		c4.338,0,8.396-1.192,11.899-3.236c2.474,2.889,1.865,4.846,1.613,5.589c-2.179,6.421-16.024,13.21-26.938,13.21
		c-6.438,0-20.79,0.183-38.962,0.415c-32.539,0.416-77.104,0.983-112.758,0.983c-17.632,0-29.205-3.402-32.592-9.583
		C734.84,521.787,735.358,518.103,736.276,515.246z M840.366,588.61c-58.886,0-92.659-16.144-92.659-44.291
		c0-0.593,0.094-1.114,0.146-1.667c5.958,1.381,13.063,2.075,21.307,2.075c35.719,0,80.322-0.568,112.889-0.984
		c18.135-0.231,32.457-0.413,38.831-0.413c3.781,0,7.877-0.613,11.928-1.715c0.133,0.86,0.223,1.748,0.223,2.704
		C933.03,564.94,922.498,588.61,840.366,588.61z"/>
	<path fill="#030202" d="M177.087,600.121c0.142,0.081,0.28,0.167,0.432,0.234c0.153,0.068,0.313,0.112,0.475,0.166
		c0.156,0.051,0.311,0.111,0.474,0.147c0.169,0.038,0.343,0.05,0.518,0.071c0.139,0.018,0.274,0.053,0.417,0.057l164.67,5.941
		c0.062,0.001,0.121,0.004,0.184,0.004l0,0l0,0h0.002c0.001,0,0.003,0,0.004,0c0.434-0.003,0.849-0.072,1.25-0.174
		c0.108-0.028,0.211-0.066,0.316-0.099c0.32-0.104,0.625-0.237,0.913-0.4c0.08-0.045,0.161-0.079,0.238-0.128
		c0.349-0.223,0.669-0.48,0.953-0.776c0.056-0.06,0.1-0.125,0.153-0.187c0.23-0.265,0.432-0.552,0.604-0.858
		c0.03-0.056,0.078-0.097,0.106-0.153l35.377-69.01c0.893-0.917,1.447-2.168,1.447-3.552v-98.223c0-0.029-0.008-0.058-0.008-0.087
		c-0.001-0.104-0.023-0.206-0.032-0.31c-0.023-0.294-0.065-0.582-0.136-0.861c-0.03-0.119-0.068-0.232-0.108-0.35
		c-0.091-0.278-0.206-0.539-0.342-0.794c-0.035-0.063-0.048-0.134-0.086-0.197c-0.02-0.034-0.051-0.058-0.071-0.093
		c-0.209-0.333-0.442-0.646-0.719-0.921c-0.011-0.012-0.025-0.019-0.036-0.031c-0.264-0.259-0.562-0.479-0.877-0.675
		c-0.098-0.061-0.197-0.11-0.298-0.164c-0.248-0.131-0.502-0.243-0.77-0.331c-0.117-0.039-0.232-0.079-0.354-0.11
		c-0.289-0.074-0.587-0.117-0.895-0.14c-0.077-0.005-0.15-0.034-0.228-0.035l-71.891-1.985c-2.381-2.018-5.148-3.968-8.296-5.841
		c-4.021-10.7-13.22-17.772-13.786-18.199c-1.891-1.422-4.514-1.364-6.333,0.156c-1.82,1.514-2.356,4.083-1.299,6.2
		c1.564,3.127-0.369,10.309-3.919,16.752l-44.88-1.241c-1.722-0.067-3.265,0.732-4.256,2.085l-50.529,68.958
		c-0.016,0.021-0.022,0.045-0.037,0.066c-0.239,0.334-0.435,0.698-0.587,1.088c-0.034,0.085-0.052,0.174-0.082,0.259
		c-0.099,0.304-0.17,0.615-0.214,0.939c-0.017,0.128-0.031,0.251-0.038,0.38c-0.005,0.095-0.028,0.187-0.028,0.283v97.717
		c0,0.145,0.032,0.28,0.043,0.422c0.014,0.172,0.02,0.347,0.052,0.515c0.031,0.17,0.085,0.327,0.133,0.488
		c0.046,0.159,0.085,0.32,0.146,0.472c0.063,0.16,0.146,0.304,0.224,0.453c0.075,0.142,0.142,0.286,0.228,0.419
		c0.093,0.143,0.203,0.27,0.307,0.401c0.1,0.123,0.191,0.251,0.3,0.363c0.117,0.119,0.247,0.223,0.373,0.331
		c0.123,0.105,0.239,0.214,0.372,0.307C176.796,599.965,176.942,600.04,177.087,600.121z M375.419,494.8l-26.061,50.84v-12.5
		l26.061-50.84V494.8z M339.155,561.484l-154.468-5.574v-24.659l154.468,5.576V561.484z M339.155,571.692v24.661l-154.468-5.575
		v-24.659L339.155,571.692z M349.358,568.005l26.061-50.839v12.503l-26.061,50.84V568.005z M375.419,459.931l-26.061,50.841v-5.614
		l26.061-50.84V459.931z M339.155,526.618l-154.468-5.576v-17.771l154.468,5.576V526.618z M301.304,437.326
		c0.348-1.207,0.593-2.396,0.763-3.567c4.495,3.779,7.064,7.661,7.447,11.469c0.548,5.422-3.258,9.871-4.78,11.421
		c-2.676,0.793-10.264,2.842-19.668,3.637c-0.217-0.216-0.358-0.384-0.448-0.502c0.556-1.09,2.839-3.279,4.392-4.768
		C293.213,450.988,298.968,445.469,301.304,437.326z M288.574,419.123c1.116,1.771,2.079,3.756,2.724,5.876
		c0.003,0.013,0.007,0.025,0.01,0.038c0.888,2.935,1.148,6.139,0.189,9.477c-1.576,5.498-5.813,9.558-9.548,13.14
		c-4.105,3.934-7.988,7.655-7.595,12.887c-1.476-0.063-2.967-0.169-4.464-0.329c-2.089-0.22-7.003-1.028-7.521-3.717
		c-0.625-3.233,3.133-8.72,7.585-11.079c4.264-2.256,8.465-6.622,11.911-11.808c0.304-0.363,0.572-0.756,0.766-1.195
		C285.244,428.239,287.366,423.631,288.574,419.123z M232.649,434.198l34.44,0.951c-0.631,0.476-1.265,0.91-1.908,1.25
		c-7.619,4.034-14.5,13.374-12.831,22.028c0.749,3.882,3.884,10.595,16.463,11.93c4.525,0.48,8.969,0.551,13.165,0.362
		c0.031,0.02,0.063,0.04,0.096,0.062c0.847,0.538,1.793,0.794,2.729,0.794c1.255,0,2.491-0.464,3.44-1.331
		c11.699-1.235,20.252-4.067,20.782-4.247c0.018-0.007,0.033-0.016,0.05-0.023c0.048-0.018,0.091-0.044,0.138-0.062
		c0.518-0.199,0.982-0.471,1.393-0.804c0.023-0.019,0.053-0.024,0.077-0.044c0.011-0.009,0.053-0.045,0.076-0.065
		c0.012-0.01,0.021-0.019,0.032-0.028c1.041-0.903,9.985-9.037,8.887-20.64c-0.253-2.676-1.065-5.271-2.319-7.792l54.93,1.519
		l-31.091,60.653l-151.806-5.481L232.649,434.198z"/>
	<path fill="#030202" d="M1040.979,754.738c-0.82-1.832-2.643-3.012-4.652-3.012c-2.009,0-3.831,1.18-4.652,3.012
		c-0.194,0.432-0.427,0.84-0.677,1.239c-0.99,1.57-1.048,3.557-0.152,5.184c0.899,1.628,2.609,2.638,4.468,2.638h2.028
		c1.857,0,3.568-1.01,4.467-2.638c0.896-1.627,0.839-3.613-0.151-5.184C1041.408,755.578,1041.175,755.17,1040.979,754.738z"/>
	<path fill="#030202" d="M985.193,754.738c-0.822-1.832-2.644-3.012-4.653-3.012c-2.008,0-3.83,1.18-4.652,3.012
		c-0.194,0.432-0.427,0.84-0.678,1.239c-0.99,1.57-1.048,3.557-0.151,5.184c0.898,1.628,2.609,2.638,4.467,2.638h2.03
		c1.858,0,3.568-1.01,4.466-2.638c0.897-1.627,0.84-3.613-0.15-5.184C985.62,755.578,985.389,755.17,985.193,754.738z"/>
	<path fill="#030202" d="M957.301,754.738c-0.822-1.83-2.64-3.009-4.648-3.012c-0.001,0-0.003,0-0.004,0
		c-2.004,0-3.824,1.175-4.649,3.002c-0.195,0.431-0.426,0.844-0.677,1.238c-0.996,1.571-1.056,3.561-0.159,5.192
		c0.897,1.627,2.609,2.64,4.469,2.64h2.029c1.858,0,3.568-1.01,4.468-2.638c0.896-1.627,0.838-3.613-0.152-5.184
		C957.727,755.578,957.495,755.17,957.301,754.738z"/>
	<path fill="#030202" d="M1013.088,754.738c-0.822-1.83-2.64-3.009-4.648-3.012c-0.001,0-0.002,0-0.005,0
		c-2.004,0-3.823,1.175-4.649,3.002c-0.196,0.435-0.429,0.847-0.681,1.249c-0.99,1.57-1.048,3.557-0.151,5.184
		c0.898,1.628,2.609,2.638,4.467,2.638h2.03c1.859,0,3.571-1.013,4.469-2.64c0.896-1.632,0.835-3.621-0.16-5.192
		C1013.51,755.575,1013.28,755.166,1013.088,754.738z"/>
	<path fill="#030202" d="M929.406,754.738c-0.82-1.832-2.643-3.012-4.652-3.012s-3.831,1.18-4.653,3.012
		c-0.193,0.432-0.427,0.84-0.678,1.239c-0.989,1.57-1.048,3.557-0.15,5.184c0.897,1.628,2.608,2.638,4.468,2.638h2.028
		c1.857,0,3.568-1.01,4.467-2.638c0.896-1.627,0.839-3.613-0.151-5.184C929.833,755.578,929.601,755.17,929.406,754.738z"/>
	<path fill="#030202" d="M980.54,638.552c-49.712,0-90.154,33.388-90.154,74.424c0,8.358,1.651,16.521,4.912,24.323
		c-3.055,3.57-4.912,8.193-4.912,13.251c0,8.396,5.038,15.732,12.598,18.838l17.49,80.532c0.51,2.344,2.585,4.018,4.984,4.018
		h110.165c2.4,0,4.476-1.674,4.985-4.018l17.495-80.532c7.555-3.108,12.593-10.441,12.593-18.838c0-5.058-1.858-9.685-4.915-13.254
		c3.264-7.799,4.915-15.962,4.915-24.32C1070.696,671.939,1030.253,638.552,980.54,638.552z M980.54,648.754
		c44.087,0,79.954,28.812,79.954,64.222c0,6.279-1.156,12.428-3.366,18.362c-2.146-0.771-4.446-1.209-6.852-1.209
		c-5.265,0-10.229,2.049-13.947,5.539c-3.718-3.49-8.68-5.539-13.945-5.539c-5.267,0-10.23,2.049-13.949,5.539
		c-3.718-3.49-8.681-5.539-13.945-5.539c-5.266,0-10.23,2.049-13.949,5.539c-3.716-3.49-8.68-5.539-13.943-5.539
		c-5.268,0-10.23,2.049-13.948,5.539c-3.719-3.49-8.683-5.539-13.945-5.539c-5.267,0-10.229,2.049-13.949,5.539
		c-3.719-3.49-8.681-5.539-13.945-5.539c-2.408,0-4.71,0.441-6.856,1.209c-2.209-5.932-3.364-12.083-3.364-18.362
		C900.588,677.565,936.455,648.754,980.54,648.754z M1052.587,760.475c-1.923,0.444-3.414,1.959-3.833,3.885l-17.242,79.376H929.57
		l-17.237-79.376c-0.419-1.926-1.912-3.44-3.833-3.885c-4.659-1.084-7.912-5.162-7.912-9.925c0-5.636,4.584-10.218,10.221-10.218
		c3.991,0,7.641,2.37,9.296,6.04c0.823,1.827,2.644,3.003,4.649,3.003s3.826-1.176,4.649-3.003c1.656-3.67,5.307-6.04,9.3-6.04
		c3.991,0,7.64,2.37,9.296,6.04c0.823,1.827,2.643,3.003,4.649,3.003c2.006,0,3.826-1.176,4.651-3.005
		c1.652-3.668,5.302-6.038,9.297-6.038c3.992,0,7.641,2.37,9.292,6.038c0.827,1.829,2.646,3.005,4.651,3.005
		c2.007,0,3.826-1.176,4.652-3.005c1.651-3.668,5.302-6.038,9.297-6.038c3.992,0,7.64,2.37,9.296,6.04
		c0.823,1.827,2.644,3.003,4.649,3.003c2.007,0,3.826-1.176,4.651-3.005c1.652-3.668,5.303-6.038,9.298-6.038
		c3.992,0,7.64,2.37,9.293,6.038c0.825,1.829,2.646,3.005,4.65,3.005c2.006,0,3.826-1.176,4.65-3.003
		c1.655-3.67,5.306-6.04,9.299-6.04c5.635,0,10.218,4.582,10.218,10.218C1060.494,755.313,1057.242,759.391,1052.587,760.475z"/>
	<path fill="#030202" d="M930.831,694.477c6.178,0,11.674-5.604,14.758-10.844c3.283-5.583,3.968-10.939,1.877-14.703
		c-1.605-2.889-4.381-4.546-7.61-4.546c-7.43,0-16.321,9.595-18.868,12.534c-0.94,1.089-1.381,2.523-1.209,3.952
		C921.262,693.151,928.003,694.477,930.831,694.477z M938.243,675.214c-0.37,1.292-1.218,3.171-2.741,5.163
		c-1.854,2.433-3.56,3.535-4.361,3.821c-0.206-0.333-0.55-1.03-0.854-2.339C933.049,678.973,936.186,676.369,938.243,675.214z"/>
	<path fill="#030202" d="M936.714,706.296c-0.942,1.089-1.382,2.524-1.209,3.952c1.481,12.279,8.223,13.604,11.05,13.604
		c6.178,0,11.675-5.604,14.759-10.844c3.282-5.583,3.967-10.94,1.875-14.703c-1.605-2.89-4.378-4.547-7.607-4.547
		C948.151,693.759,939.26,703.357,936.714,706.296z M953.965,704.592c-0.372,1.296-1.217,3.169-2.738,5.162
		c-1.854,2.432-3.561,3.534-4.363,3.819c-0.205-0.332-0.547-1.03-0.852-2.331C948.776,708.359,951.912,705.751,953.965,704.592z"/>
	<path fill="#030202" d="M976.646,688.518c6.176,0,11.672-5.6,14.756-10.844c3.284-5.582,3.969-10.942,1.878-14.708
		c-1.605-2.887-4.378-4.541-7.606-4.541c-7.429,0-16.32,9.599-18.869,12.538c-0.942,1.089-1.382,2.524-1.209,3.952
		C967.076,687.192,973.817,688.518,976.646,688.518z M984.057,669.259c-0.372,1.292-1.217,3.169-2.738,5.161
		c-1.855,2.431-3.561,3.533-4.363,3.819c-0.205-0.331-0.547-1.029-0.853-2.335C978.863,673.021,981.998,670.415,984.057,669.259z"/>
	<path fill="#030202" d="M517.985,681.847c-2.07-4.999-2.753-10.918-3.476-17.182c-1.19-10.312-2.419-20.976-10.194-28.75
		c-7.776-7.778-18.444-9.004-28.761-10.192c-6.258-0.721-12.17-1.402-17.163-3.468c-4.998-2.071-9.662-5.771-14.601-9.691
		c-8.134-6.453-16.545-13.124-27.54-13.124c-10.997,0-19.409,6.671-27.544,13.128c-4.938,3.916-9.601,7.616-14.594,9.688
		c-4.995,2.065-10.907,2.747-17.166,3.468c-10.317,1.188-20.985,2.414-28.761,10.192c-7.774,7.774-9.005,18.438-10.196,28.755
		c-0.722,6.264-1.404,12.178-3.475,17.177c-2.069,4.998-5.769,9.66-9.686,14.6c-6.453,8.132-13.123,16.542-13.123,27.535
		s6.67,19.402,13.121,27.536c3.917,4.94,7.619,9.604,9.688,14.606c2.071,4.997,2.753,10.913,3.475,17.173
		c1.191,10.316,2.422,20.98,10.196,28.752c7.775,7.773,18.442,9.007,28.758,10.195c6.259,0.72,12.172,1.404,17.166,3.471
		c4.998,2.072,9.665,5.772,14.603,9.687c8.133,6.454,16.546,13.126,27.539,13.126c10.995,0,19.405-6.672,27.539-13.126
		c4.938-3.914,9.603-7.614,14.6-9.687c4.997-2.066,10.908-2.751,17.168-3.471c10.316-1.188,20.983-2.422,28.758-10.195
		c7.773-7.771,9.004-18.436,10.194-28.752c0.722-6.26,1.405-12.179,3.476-17.177c2.069-4.999,5.769-9.662,9.685-14.601
		c6.453-8.133,13.124-16.545,13.124-27.538s-6.67-19.405-13.122-27.535C523.754,691.507,520.054,686.845,517.985,681.847z
		 M519.677,745.18c-4.181,5.271-8.503,10.722-11.117,17.035c-2.617,6.315-3.414,13.231-4.186,19.913
		c-1.035,8.974-2.013,17.449-7.272,22.707c-5.262,5.26-13.739,6.239-22.713,7.272c-6.68,0.771-13.588,1.568-19.903,4.182
		c-6.315,2.617-11.766,6.94-17.036,11.12c-7.076,5.615-13.76,10.916-21.199,10.916c-7.438,0-14.124-5.301-21.199-10.914
		c-5.271-4.182-10.721-8.505-17.04-11.122c-6.313-2.613-13.22-3.41-19.9-4.182c-8.975-1.033-17.451-2.013-22.713-7.272
		c-5.261-5.262-6.239-13.733-7.273-22.707c-0.772-6.682-1.569-13.594-4.186-19.906c-2.614-6.32-6.938-11.771-11.12-17.044
		c-5.613-7.074-10.913-13.757-10.913-21.196s5.3-14.121,10.913-21.195c4.182-5.271,8.505-10.722,11.12-17.034
		c2.617-6.317,3.414-13.228,4.186-19.914c1.034-8.974,2.012-17.449,7.273-22.709c5.262-5.262,13.74-6.238,22.715-7.27
		c6.679-0.771,13.585-1.566,19.902-4.18c6.313-2.62,11.762-6.94,17.031-11.122c7.077-5.613,13.763-10.916,21.204-10.916
		c7.438,0,14.123,5.303,21.2,10.916c5.269,4.182,10.717,8.502,17.037,11.122c6.312,2.613,13.22,3.408,19.899,4.18
		c8.976,1.031,17.453,2.008,22.715,7.27c5.259,5.26,6.237,13.735,7.272,22.706c0.772,6.686,1.569,13.597,4.186,19.917
		c2.615,6.313,6.938,11.764,11.117,17.034c5.613,7.074,10.914,13.756,10.914,21.195S525.29,738.104,519.677,745.18z"/>
	<path fill="#030202" d="M416.251,635.094c-49.016,0-88.893,39.875-88.893,88.888c0,49.014,39.877,88.891,88.893,88.891
		c49.013,0,88.888-39.877,88.888-88.891C505.139,674.969,465.264,635.094,416.251,635.094z M416.251,802.67
		c-43.389,0-78.69-35.301-78.69-78.688s35.301-78.685,78.69-78.685c43.387,0,78.686,35.297,78.686,78.685
		S459.638,802.67,416.251,802.67z"/>
	<path fill="#030202" d="M474.071,674.804c-1.036-1.217-2.11-2.4-3.22-3.549c-0.614-0.636-1.237-1.258-1.873-1.873
		c-1.141-1.101-2.313-2.167-3.521-3.195c-0.318-0.272-0.607-0.581-0.932-0.847c-0.051-0.043-0.116-0.053-0.169-0.092
		c-13.109-10.758-29.866-17.225-48.106-17.225c-1.625,0-3.232,0.07-4.831,0.17c-0.169,0.012-0.338,0.026-0.508,0.04
		c-15.809,1.103-30.293,7.059-41.979,16.391c-0.01,0.009-0.023,0.011-0.033,0.019c-0.027,0.021-0.052,0.049-0.079,0.07
		c-4.369,3.502-8.341,7.476-11.844,11.843c-0.023,0.029-0.05,0.055-0.073,0.083c-0.009,0.01-0.01,0.025-0.018,0.035
		c-9.331,11.682-15.283,26.158-16.389,41.96c-0.013,0.173-0.028,0.346-0.04,0.52c-0.102,1.596-0.17,3.204-0.17,4.828
		c0,18.243,6.468,34.999,17.224,48.106c0.042,0.053,0.051,0.12,0.094,0.174c0.272,0.328,0.586,0.623,0.863,0.949
		c1.025,1.202,2.086,2.368,3.184,3.503c0.612,0.635,1.233,1.256,1.87,1.87c1.139,1.103,2.313,2.169,3.52,3.198
		c0.319,0.27,0.608,0.578,0.93,0.844c0.052,0.043,0.117,0.054,0.168,0.093c13.11,10.758,29.869,17.224,48.11,17.224
		c1.624,0,3.233-0.069,4.832-0.169c0.168-0.014,0.335-0.027,0.503-0.04c15.809-1.103,30.294-7.058,41.979-16.39
		c0.01-0.011,0.023-0.011,0.035-0.021c0.028-0.022,0.053-0.05,0.083-0.072c4.369-3.504,8.341-7.477,11.843-11.847
		c0.02-0.027,0.045-0.047,0.065-0.074c0.006-0.009,0.008-0.019,0.016-0.029c9.331-11.684,15.286-26.164,16.394-41.966
		c0.013-0.176,0.028-0.352,0.04-0.524c0.101-1.598,0.169-3.205,0.169-4.829c0-18.244-6.468-34.999-17.227-48.11
		c-0.04-0.05-0.047-0.112-0.089-0.162C474.635,675.395,474.336,675.114,474.071,674.804z M481.217,714.326
		c0.271,1.895,0.474,3.813,0.586,5.763c-0.28,1.299-0.209,2.641,0.204,3.909c-0.001,1.88-0.127,3.726-0.282,5.563
		c-0.07,0.783-0.145,1.568-0.244,2.355c-0.027,0.219-0.072,0.435-0.102,0.653l-1.517-1.515c-2.865-2.869-7.874-2.869-10.74,0
		l-15.551,15.547c-2.945,2.953-2.946,7.766,0.007,10.738l11.039,11.039c-0.277,0.302-0.544,0.61-0.827,0.909
		c-0.728,0.761-1.473,1.509-2.236,2.235c-0.298,0.281-0.61,0.552-0.913,0.83l-11.028-11.023c-2.87-2.892-7.899-2.885-10.754-0.013
		l-15.54,15.536c-1.438,1.436-2.228,3.344-2.228,5.374c0,2.029,0.79,3.938,2.225,5.37l1.516,1.515
		c-0.214,0.029-0.425,0.072-0.639,0.1c-0.792,0.101-1.583,0.176-2.373,0.245c-1.84,0.157-3.69,0.283-5.569,0.283
		c-0.752-0.243-1.54-0.369-2.325-0.369c-0.53,0-1.051,0.057-1.559,0.162c-1.951-0.108-3.875-0.315-5.77-0.583
		c-0.086-0.014-0.172-0.027-0.259-0.04c1.312-1.409,2.029-3.235,2.028-5.172c-0.002-2.028-0.795-3.939-2.226-5.359l-15.546-15.547
		c-2.866-2.863-7.847-2.87-10.74,0l-8.793,8.798c-0.842-0.797-1.66-1.617-2.459-2.458l8.816-8.812
		c2.928-2.958,2.924-7.765-0.018-10.727l-15.542-15.536c-2.806-2.813-7.681-2.872-10.539-0.2c-0.013-0.082-0.027-0.165-0.038-0.248
		c-0.271-1.893-0.475-3.816-0.588-5.772c0.283-1.295,0.213-2.634-0.204-3.909c0.001-1.88,0.127-3.729,0.282-5.573
		c0.07-0.773,0.143-1.551,0.242-2.327c0.027-0.227,0.071-0.445,0.101-0.668l1.523,1.524c2.866,2.851,7.844,2.862,10.735-0.006
		l15.548-15.55c2.944-2.95,2.951-7.759-0.003-10.737l-11.042-11.038c0.28-0.306,0.551-0.62,0.836-0.921
		c0.724-0.758,1.465-1.498,2.224-2.223c0.299-0.285,0.613-0.555,0.918-0.836l11.043,11.043c2.868,2.858,7.861,2.865,10.739-0.005
		l15.54-15.538c1.438-1.436,2.229-3.342,2.229-5.372c0-2.025-0.789-3.932-2.226-5.37l-1.516-1.519
		c0.185-0.024,0.366-0.062,0.55-0.083c0.883-0.112,1.771-0.196,2.658-0.271c1.429-0.116,2.87-0.195,4.322-0.219
		c0.366-0.006,0.727-0.037,1.093-0.037c1.249,0.392,2.59,0.452,3.848,0.19c1.953,0.11,3.872,0.315,5.762,0.582
		c0.089,0.014,0.178,0.028,0.266,0.042c-1.315,1.41-2.034,3.235-2.033,5.174c0.002,2.033,0.797,3.943,2.227,5.361l15.546,15.55
		c2.873,2.862,7.858,2.865,10.738-0.005l8.798-8.8c0.842,0.798,1.659,1.615,2.458,2.458l-8.814,8.813
		c-2.934,2.955-2.933,7.765,0.015,10.727l15.548,15.547c2.803,2.796,7.657,2.87,10.534,0.192
		C481.19,714.157,481.204,714.244,481.217,714.326z M471,760.331l-8.364-8.363l11.857-11.856l4.245,4.245
		C476.873,750.059,474.266,755.429,471,760.331z M436.619,786.472l-4.245-4.244l11.856-11.854l8.365,8.36
		C447.694,781.998,442.323,784.608,436.619,786.472z M379.004,778.115l6.224-6.223l11.856,11.856l-2.317,2.313
		C389.133,784.107,383.83,781.446,379.004,778.115z M354.168,745.47l2.318-2.318l11.859,11.853l-6.229,6.228
		C358.787,756.406,356.125,751.105,354.168,745.47z M361.497,687.638l8.364,8.363l-11.856,11.859l-4.246-4.248
		C355.623,697.91,358.23,692.54,361.497,687.638z M395.877,661.494l4.245,4.244l-11.856,11.856l-8.363-8.362
		C384.804,665.968,390.173,663.358,395.877,661.494z M453.496,669.851l-6.225,6.228l-11.855-11.858l2.318-2.317
		C443.369,663.859,448.671,666.52,453.496,669.851z M476.011,704.821l-11.858-11.856l6.231-6.229
		c3.331,4.824,5.991,10.129,7.949,15.767L476.011,704.821z"/>
	<path fill="#030202" d="M411.64,715.396c1.435,1.435,3.341,2.225,5.37,2.225c2.025,0,3.932-0.786,5.367-2.222l15.555-15.553
		c2.952-2.966,2.945-7.784-0.01-10.734l-15.536-15.536c-2.872-2.882-7.892-2.877-10.746-0.007l-15.539,15.536
		c-1.441,1.436-2.235,3.345-2.233,5.378c0,2.026,0.789,3.933,2.227,5.373L411.64,715.396z M417.007,682.626l11.857,11.857
		L417.01,706.34l-11.858-11.854L417.007,682.626z"/>
	<path fill="#030202" d="M420.862,732.576c-2.863-2.872-7.857-2.883-10.74-0.007l-15.548,15.55
		c-2.959,2.962-2.958,7.782,0.003,10.737l15.54,15.539c1.435,1.438,3.344,2.229,5.374,2.229c2.034,0,3.943-0.794,5.369-2.226
		l15.537-15.536c2.965-2.952,2.974-7.771,0.008-10.751L420.862,732.576z M415.488,765.339l-11.854-11.853l11.854-11.856
		l11.856,11.853L415.488,765.339z"/>
	<path fill="#030202" d="M451.121,702.312c-2.869-2.874-7.876-2.87-10.739,0l-15.548,15.546c-1.436,1.438-2.225,3.351-2.222,5.383
		c0.003,2.03,0.797,3.933,2.225,5.354l15.552,15.557c1.434,1.424,3.339,2.212,5.361,2.212c2.026,0,3.931-0.788,5.371-2.223
		l15.546-15.546c2.955-2.953,2.958-7.769-0.001-10.74L451.121,702.312z M445.75,735.084l-11.856-11.859l11.858-11.856l11.856,11.856
		L445.75,735.084z"/>
	<path fill="#030202" d="M409.885,724.729c-0.002-2.028-0.797-3.933-2.225-5.353l-15.551-15.557
		c-2.873-2.854-7.856-2.86-10.732,0.01l-15.542,15.542c-2.958,2.953-2.964,7.77-0.003,10.745l15.549,15.55
		c1.435,1.427,3.34,2.215,5.366,2.215c2.022,0,3.927-0.788,5.37-2.222l15.546-15.547
		C409.101,728.674,409.889,726.761,409.885,724.729z M386.748,736.603l-11.858-11.856l11.858-11.86l11.856,11.86L386.748,736.603z"
		/>
	<path fill="#030202" d="M1223.144,524.011c-0.965-4.497-1.877-8.74-1.877-11.663c0-60.136-48.923-109.064-109.059-109.064
		c-60.137,0-109.062,48.928-109.062,109.064c0,2.338-0.302,5.157-0.621,8.143c-1.04,9.709-2.463,23.006,8.531,26.485
		c0.834,0.265,1.696,0.437,2.569,0.555c14.854,41.724,53.962,69.542,98.582,69.542c41.48,0,79.198-24.9,95.811-62.527
		c1.535,0.618,3.119,0.963,4.749,0.963c2.448,0,4.788-0.736,6.959-2.188C1228.217,547.638,1225.521,535.083,1223.144,524.011z
		 M1112.208,606.87c-39.637,0-74.461-24.314-88.338-60.984c1.243-0.482,2.473-0.996,3.676-1.525
		c5.166-2.272,9.592-3.979,13.971-1.058c9.604,6.4,17.752,9.513,24.909,9.513c12.573,0,21.146-9.335,25.479-27.748
		c4.318-18.366,17.801-36.39,27.219-36.39c2.76,0,5.287,1.634,7.723,4.999c6.033,8.332,7.052,17.578,7.949,25.731
		c1.164,10.563,2.482,22.531,17.094,24.696c6.401,0.95,9.821-1.497,11.552-3.511c4.582-5.32,3.265-14.114,1.873-23.43
		c-0.705-4.71-2.171-14.514-0.328-15.828c1.15-0.821,2.393-1.22,3.801-1.22c6.23,0,13.382,7.416,14.174,12.952
		c0.618,4.324,6.947,24.139,16.675,35.096C1185.177,583.387,1150.476,606.87,1112.208,606.87z M1214.052,544.842
		c-0.621,0.414-1.029,0.464-1.284,0.464c-1.009,0-2.146-0.621-3.339-1.616c-0.291-0.33-0.614-0.628-0.99-0.878
		c-6.469-6.441-14.313-23.725-15.378-31.185c-1.436-10.044-12.352-21.714-24.273-21.714c-3.558,0-6.832,1.049-9.731,3.12
		c-6.927,4.947-5.353,15.466-3.831,25.642c0.754,5.041,2.018,13.483,0.486,15.261c-0.079,0.093-1.064,0.269-2.328,0.079
		c-6.154-0.913-7.152-3.988-8.445-15.723c-0.984-8.946-2.212-20.082-9.828-30.6c-5.518-7.619-11.738-9.216-15.985-9.216
		c-17.448,0-32.787,25.703-37.149,44.254c-4.194,17.824-10.883,19.883-15.549,19.883c-5.009,0-11.484-2.623-19.249-7.797
		c-3.352-2.235-6.952-3.369-10.7-3.369c-4.916,0-9.231,1.899-13.038,3.574c-3.596,1.584-6.87,2.988-9.301,2.232
		c-3.043-0.964-2.132-9.469-1.468-15.68c0.334-3.118,0.679-6.343,0.679-9.226c0-54.514,44.35-98.86,98.859-98.86
		c54.511,0,98.856,44.347,98.856,98.86c0,4.005,1.023,8.764,2.104,13.805C1214.521,532.457,1216.788,543.012,1214.052,544.842z"/>
	<path fill="#030202" d="M671.432,517.377c0-17.795-14.545-34.305-39.211-44.911c0.292-0.57,0.55-1.142,0.817-1.713
		c3.86-8.156,5.19-16.258,3.856-23.926c-0.002-0.008-0.002-0.016-0.003-0.024c0-0.001-0.001-0.004-0.001-0.004
		c-0.235-1.336-0.519-2.664-0.916-3.971c-6.058-19.968-30.867-32.371-64.746-32.371c-15.581,0-32.515,2.64-48.97,7.632
		c-54.537,16.549-90.026,53.336-80.799,83.751c3.591,11.833,13.803,20.977,28.546,26.49c9.069,26.653,50.325,45.735,99.793,45.735
		C626.79,574.065,671.432,549.164,671.432,517.377z M572.047,509.417c-1.433,0.641-2.89,1.26-4.359,1.865
		c-1.81,0.739-3.637,1.462-5.495,2.148c-0.551,0.207-1.097,0.418-1.654,0.619c-2.72,0.973-5.481,1.898-8.291,2.751
		c-0.013,0.003-0.025,0.008-0.038,0.011c-2.055,0.625-4.116,1.204-6.181,1.748c-0.805,0.212-1.612,0.398-2.419,0.599
		c-1.285,0.32-2.57,0.64-3.857,0.928c-0.847,0.191-1.69,0.36-2.536,0.536c-1.298,0.271-2.595,0.535-3.894,0.773
		c-0.75,0.139-1.498,0.265-2.249,0.392c-1.461,0.247-2.922,0.48-4.381,0.686c-0.325,0.047-0.65,0.09-0.975,0.135
		c-1.279-2.078-1.8-4.483-1.584-7.283c1.004-13.158,17.305-31.381,33.012-43.606c21.551-16.768,46.155-24.406,59.895-24.406
		c5.503,0,8.648,1.159,9.97,2.411c1.473,12.17-6.541,25.948-20.692,38.31c0.134-3.299-0.793-6.813-1.606-9.851
		c-0.07-0.266-0.149-0.562-0.226-0.853c1.068-0.596,2.421-1.442,3.843-2.791c2.613-2.474,3.462-6.181,2.164-9.442
		c-0.843-2.115-3.909-7.038-14.138-7.038c-1.45,0-3.015,0.1-4.648,0.295c-14.945,1.773-32.012,21.362-34.114,23.85
		c-2.511,3.367-5.59,8.359-3.352,12.819c0.78,1.558,2.839,4.168,7.85,4.168c3.939,0,8.532-1.604,10.917-2.561
		c5.142-2.06,8.497-5.055,10.97-7.357c0.616,4.296,4.135,7.956,8.398,9.187c-6.062,3.907-12.74,7.54-19.909,10.767
		C572.326,509.29,572.188,509.354,572.047,509.417z M594.858,480.817c0.483,1.807,1.614,6.031,1.303,7.141
		c-0.078,0.13-0.478,0.777-0.774,0.777c-0.523,0-1.22-0.59-1.33-1.122c-0.395-4.042-1.055-10.807-7.801-10.807
		c-0.746,0-1.507,0.103-2.322,0.313c-2.597,0.66-4.507,2.444-6.529,4.333c-2.132,1.99-4.548,4.249-8.192,5.706
		c-1.287,0.519-2.451,0.907-3.465,1.19c4.623-5.361,17.959-18.772,27.164-19.864c2.753-0.326,5.11-0.226,6.424,0.029
		c-0.152,0.083-0.309,0.167-0.468,0.25c-1.498,0.788-4.284,2.249-4.895,5.832C593.669,476.374,594.143,478.141,594.858,480.817z
		 M451.224,498.878c-7.316-24.111,26.571-56.635,73.997-71.025c15.508-4.706,31.417-7.193,46.007-7.193
		c23.462,0,41.65,6.223,50.346,16.699c-1.396-0.151-2.886-0.25-4.532-0.25c-15.943,0-42.584,8.213-66.162,26.558
		c-16.978,13.211-35.593,33.517-36.919,50.88c-0.248,3.239,0.126,6.31,1.081,9.141c-2.985,0.192-5.943,0.318-8.837,0.318
		C476.993,524.006,455.927,514.378,451.224,498.878z M483.565,532.121c-0.03,0.143-0.045,0.287-0.063,0.432
		c-0.117-0.17-0.238-0.335-0.349-0.505C483.288,532.074,483.431,532.095,483.565,532.121z M569.799,563.863
		c-34.534,0-65.219-9.977-80.747-24.846c8.934,3.829,38.846,15.197,79.322,15.197c19.739,0,41.98-2.713,65.484-10.328
		c2.68-0.867,4.148-3.743,3.28-6.424c-0.869-2.683-3.749-4.147-6.425-3.281c-53.904,17.466-101.68,7.38-124.957,0.017
		c0.151,0,0.296,0.011,0.447,0.011c8.079,0,16.524-0.725,25.077-2.104c0.691-0.111,1.38-0.242,2.07-0.361
		c1.658-0.288,3.314-0.594,4.977-0.934c0.896-0.181,1.79-0.37,2.687-0.566c1.546-0.336,3.089-0.701,4.634-1.081
		c0.844-0.209,1.688-0.406,2.531-0.628c2.337-0.608,4.671-1.254,6.995-1.958c32.202-9.769,57.961-26.739,71.587-45.341
		c21.655,8.915,34.469,22.25,34.469,36.141C661.23,542.574,619.36,563.863,569.799,563.863z"/>
	<path fill="#030202" d="M508.185,510.206c-0.015-2.815-2.177-5.041-5.127-5.073c-18.725,0.128-42.65-10.761-42.889-10.871
		c-2.564-1.172-5.592-0.036-6.759,2.527c-1.167,2.564-0.04,5.587,2.523,6.755c1.061,0.485,26.07,11.791,46.875,11.791
		c0.101,0,0.203,0,0.303,0C505.928,515.317,508.2,513.023,508.185,510.206z"/>
</g>
</svg>
